<svg width="25" height="33" viewBox="0 0 25 33" fill="none" xmlns="http://www.w3.org/2000/svg">
<mask id="path-1-inside-1_113_399" fill="white">
<path fill-rule="evenodd" clip-rule="evenodd" d="M0.140015 11.8685C0.140015 18.4202 4.3514 25.6804 12.14 32.0071C19.9286 25.6788 24.14 18.4185 24.14 11.8685C24.14 5.31846 18.7683 0.00708008 12.14 0.00708008C5.51345 0.00708008 0.140015 5.3168 0.140015 11.8685ZM18.839 11.8695C18.839 15.5261 15.8401 18.4904 12.1407 18.4904C8.44141 18.4904 5.4425 15.5261 5.4425 11.8695C5.4425 8.2129 8.44141 5.24863 12.1407 5.24863C15.8401 5.24863 18.839 8.2129 18.839 11.8695Z"/>
</mask>
<path d="M12.14 32.0071L10.9398 33.4847L12.1402 34.4598L13.3404 33.4845L12.14 32.0071ZM13.3403 30.5295C5.78204 24.39 2.04366 17.6182 2.04366 11.8685H-1.76363C-1.76363 19.2222 2.92076 26.9709 10.9398 33.4847L13.3403 30.5295ZM22.2364 11.8685C22.2364 17.6165 18.498 24.3883 10.9396 30.5296L13.3404 33.4845C21.3592 26.9692 26.0437 19.2206 26.0437 11.8685H22.2364ZM12.14 1.91073C17.7376 1.91073 22.2364 6.39043 22.2364 11.8685H26.0437C26.0437 4.2465 19.7989 -1.89657 12.14 -1.89657V1.91073ZM2.04366 11.8685C2.04366 6.38911 6.54372 1.91073 12.14 1.91073V-1.89657C4.48318 -1.89657 -1.76363 4.24448 -1.76363 11.8685H2.04366ZM12.1407 20.394C16.8705 20.394 20.7426 16.5983 20.7426 11.8695H16.9353C16.9353 14.454 14.8096 16.5868 12.1407 16.5868V20.394ZM3.53886 11.8695C3.53886 16.5983 7.41096 20.394 12.1407 20.394V16.5868C9.47186 16.5868 7.34615 14.454 7.34615 11.8695H3.53886ZM12.1407 3.34498C7.41096 3.34498 3.53886 7.14076 3.53886 11.8695H7.34615C7.34615 9.28504 9.47186 7.15228 12.1407 7.15228V3.34498ZM20.7426 11.8695C20.7426 7.14076 16.8705 3.34498 12.1407 3.34498V7.15228C14.8096 7.15228 16.9353 9.28504 16.9353 11.8695H20.7426Z" fill="#0066FF" mask="url(#path-1-inside-1_113_399)"/>
</svg>
